# 3ds Max Wavefront OBJ Exporter v0.97b - (c)2007 guruware
# File Created: 08.04.2019 20:26:54

#
# object Paper_2
#

v  -0.2363 -3.6900 -2.9909
v  -0.2363 -3.8325 2.8060
v  0.0579 -2.8922 2.8291
v  0.0579 -2.7497 -2.9678
v  0.2363 -1.9519 2.8523
v  0.2363 3.6901 2.9909
v  0.2363 3.8325 -2.8060
v  0.2363 -1.8094 -2.9447
# 8 vertices

vn -0.9544 0.2984 0.0073
vn -0.9701 0.2428 0.0060
vn -0.9956 0.0936 0.0023
vn -1.0000 -0.0000 -0.0000
# 4 vertex normals

vt 0.8967 0.6386 0.0000
vt 0.8734 0.6392 0.0000
vt 0.8733 0.6354 0.0000
vt 0.8966 0.6348 0.0000
vt 0.8732 0.6316 0.0000
vt 0.8727 0.6090 0.0000
vt 0.8960 0.6084 0.0000
vt 0.8965 0.6311 0.0000
# 8 texture coords

g Paper_2
s 1
f 1/1/1 2/2/1 3/3/2 4/4/2 
f 5/5/3 6/6/4 7/7/4 8/8/3 
f 3/3/2 5/5/3 8/8/3 4/4/2 
# 3 polygons

